<svg xmlns="http://www.w3.org/2000/svg" viewBox="0 0 800 400" width="800" height="400" role="img" aria-label="">
  <defs>
    <linearGradient id="bg" x1="0%" y1="0%" x2="100%" y2="100%">
      <stop offset="0%" style="stop-color:#eef2ff"/>
      <stop offset="100%" style="stop-color:#faf5ff"/>
    </linearGradient>
    <linearGradient id="bar" x1="0%" y1="0%" x2="0%" y2="100%">
      <stop offset="0%" style="stop-color:#5b4dff"/>
      <stop offset="100%" style="stop-color:#8b5cf6"/>
    </linearGradient>
  </defs>
  <rect width="800" height="400" fill="url(#bg)"/>
  <rect x="80" y="240" width="48" height="100" rx="6" fill="url(#bar)" opacity="0.85"/>
  <rect x="150" y="180" width="48" height="160" rx="6" fill="url(#bar)" opacity="0.65"/>
  <rect x="220" y="200" width="48" height="140" rx="6" fill="url(#bar)" opacity="0.75"/>
  <rect x="290" y="150" width="48" height="190" rx="6" fill="url(#bar)" opacity="0.55"/>
  <rect x="400" y="100" width="320" height="220" rx="16" fill="#fff" stroke="#e2e8f0" stroke-width="2"/>
  <rect x="430" y="130" width="120" height="14" rx="4" fill="#cbd5e1"/>
  <rect x="430" y="158" width="260" height="10" rx="3" fill="#e2e8f0"/>
  <rect x="430" y="182" width="200" height="10" rx="3" fill="#e2e8f0"/>
  <rect x="430" y="220" width="80" height="28" rx="6" fill="#5b4dff" opacity="0.9"/>
  <rect x="520" y="220" width="80" height="28" rx="6" fill="#e2e8f0"/>
  <rect x="610" y="220" width="80" height="28" rx="6" fill="#e2e8f0"/>
  <circle cx="680" cy="150" r="36" fill="#818cf8" opacity="0.35"/>
</svg>
